<svg xmlns="http://www.w3.org/2000/svg" viewBox="0 0 3333 3333" shape-rendering="geometricPrecision" text-rendering="geometricPrecision" image-rendering="optimizeQuality" fill-rule="evenodd" clip-rule="evenodd"><path d="M1667 0c460 0 877 187 1179 488 302 302 488 718 488 1179 0 460-187 877-488 1179-302 302-718 488-1179 488-460 0-877-187-1179-488C186 2544 0 2128 0 1667c0-460 187-877 488-1179C790 186 1206 0 1667 0zm867 1129c-64 29-132 47-204 56 74-44 130-114 157-197-69 41-145 70-226 86-65-69-157-112-260-112-197 0-356 159-356 356 0 28 3 55 9 81-296-15-558-157-733-372-31 54-48 116-48 179 0 123 63 232 158 296-58-2-113-18-161-44v4c0 172 123 316 286 349-30 8-61 13-94 13-23 0-45-2-67-6 46 141 177 244 332 247-122 96-275 152-442 152-29 0-57-2-85-5 158 101 345 160 546 160 654 0 1013-542 1013-1013 0-16 0-31-1-46 70-50 130-112 177-184zm226-555c-280-280-666-453-1093-453S853 294 574 574c-280 280-453 666-453 1093s173 814 453 1093c280 280 666 453 1093 453s814-173 1093-453c280-280 453-666 453-1093s-173-814-453-1093z" fill-rule="nonzero"/></svg>