<svg xmlns="http://www.w3.org/2000/svg" viewBox="0 0 3333 3333" shape-rendering="geometricPrecision" text-rendering="geometricPrecision" image-rendering="optimizeQuality" fill-rule="evenodd" clip-rule="evenodd"><path d="M2341 978c-168-169-392-262-631-262-491 0-891 400-891 892 0 157 41 311 119 446l-127 462 473-124c130 71 277 109 426 109 491 0 892-400 892-892 0-238-93-462-261-631zM1666 0c460 0 877 187 1179 488 302 302 488 718 488 1179 0 460-187 877-488 1179-302 302-718 488-1179 488-460 0-877-187-1179-488C185 2544-1 2128-1 1667c0-460 187-877 488-1179C789 186 1205 0 1666 0zm1093 573c-280-280-666-453-1093-453S852 293 573 573c-280 280-453 666-453 1093s173 814 453 1093c280 280 666 453 1093 453s814-173 1093-453c280-280 453-666 453-1093s-173-814-453-1093zM1710 2350c-133 0-264-36-377-103l-27-16-281 73 75-273-18-28c-75-118-114-254-114-394 0-409 333-741 742-741 198 0 384 77 524 217s217 326 217 524c0 409-333 742-741 742zm406-555c-22-11-132-65-152-72s-35-11-50 11-58 72-71 87-26 17-48 6-94-35-179-111c-66-59-111-132-124-154s-1-34 10-45c10-10 22-26 33-39s15-22 22-37 4-28-2-39-50-121-69-166c-18-44-37-38-50-38-13-1-28-1-43-1s-39 6-59 28-78 76-78 186 80 215 91 231c11 15 157 240 381 336 53 23 95 37 127 47 53 17 102 14 140 9 43-6 132-54 151-106s19-97 13-106c-5-10-20-15-43-27z"/></svg>